<?xml version="1.0" encoding="UTF-8"?>
<svg width="504px" height="581px" viewBox="0 0 504 581" version="1.1" xmlns="http://www.w3.org/2000/svg" xmlns:xlink="http://www.w3.org/1999/xlink">
    <title>Group</title>
    <g id="Page-1" stroke="none" stroke-width="1" fill="none" fill-rule="evenodd">
        <g id="Group">
            <polyline id="Fill-1" fill="#FF1A75" points="0 146.546872 65.3859434 184.901038 168.056278 125.366317 353.891946 234.704861 356.186343 320 421 281.072914 421 196.350695 235.736619 87.58507 319.524992 38.9008854 252.941972 0 0 146.546872"></polyline>
            <polyline id="Fill-2" fill="#FF7F50" points="440.402443 183.826324 504 146 504 437.712637 440.402443 476.110789 440.402443 379.828621 253.620241 487 182 445.162138 182 367.22043 254.193664 408.482967 440.975867 301.313337 440.402443 183.826324"></polyline>
            <polyline id="Fill-3" fill="#4DC74B" points="1 340.519395 1 187 63 223.163293 63 376 1 340.519395"></polyline>
            <polyline id="Fill-4" fill="#FFBD00" points="412.841728 168 274 87.1484284 337.502613 51 475 129.40163 412.841728 168"></polyline>
            <polyline id="Fill-5" fill="#F6213A" points="270 576 425 487.244829 425 409 270 497.756921 270 576"></polyline>
            <path d="M1,363.640279 L83.9972318,411.116705 L83.9972318,194.327707 L158.981347,152 L227.096329,190.323923 L153.257942,232.080908 L153.257942,449.440628 L254,506.067812 L254,581 L1.57111792,437.427532 C1.57111792,437.427532 1,365.355937 1,363.640279" id="Fill-6" fill="#910496"></path>
            <polyline id="Fill-7" fill="#00AAE4" points="313 250 247 284.34806 249.562869 383 313 346.268377 313 250"></polyline>
            <polyline id="Fill-8" fill="#00AAE4" points="247.009391 283.972131 246.993659 284 313 249.660696 233.396304 203 168 240.410072 247.009391 283.972131"></polyline>
        </g>
    </g>
</svg>